<svg width="366" height="75" viewBox="0 0 366 75" fill="none" xmlns="http://www.w3.org/2000/svg">
<path d="M364.659 51.4614C364.435 59.951 357.505 66.749 348.978 66.8129H331.828V29.8545H340.515C345.273 29.8864 349.138 33.6844 349.265 38.4398V39.2377H349.585V20.1202H349.265V20.9181C349.138 25.6416 345.273 29.4715 340.515 29.5034H331.828V1.06653H313.911V1.67293H322.502V66.8129H313.911V67.4192H365.202V50.0252H364.659V51.4614ZM331.86 1.06653V1.67293H349.01C357.537 1.73676 364.467 8.5348 364.691 17.0244V18.4606H365.234V1.06653H331.86Z" fill="#FF0092"/>
<path d="M313.975 66.8129V0.970825H304.65V1.35381H304.618L284.944 52.9934L263.451 0.970825H253.55L254.413 3.10918V66.9087H245.885V67.515H263.547V66.9087H255.051V4.60921L279.866 66.3661L280.314 66.5257C280.473 66.5895 280.633 66.4937 280.697 66.3342L304.65 3.46025V66.781H298.294V67.3874H320.363V66.781H313.975V66.8129Z" fill="#FF0092"/>
<path d="M211.649 0.906982H202.291H179.233V18.3649H179.776V16.9287C179.999 8.43909 186.93 1.57721 195.489 1.5453H202.259V66.8767H193.636V67.4831H220.208V66.8767H211.585V1.51338H218.356C226.915 1.57721 233.845 8.40717 234.069 16.8967V18.333H234.612V0.906982H211.649Z" fill="#FF0092"/>
<path d="M137.747 0.906982H167.991V1.5453H157.548V46.8975C157.548 50.6635 157.867 53.8232 158.538 56.4403C159.208 59.0255 160.167 61.1319 161.508 62.7277C162.849 64.3235 164.446 65.4724 166.394 66.1427C168.342 66.8448 170.546 67.164 173.069 67.164C176.582 67.164 179.68 66.6533 182.363 65.6001C185.045 64.5788 187.984 62.7915 189.9 60.1744C190.539 59.3765 191.082 58.5467 191.529 57.7488C192.008 56.9509 192.391 55.9935 192.742 54.8764C193.094 53.7913 193.349 52.4827 193.541 50.9189C193.732 49.3869 193.828 47.5039 193.828 45.2379V1.60913L182.81 1.5453V0.906982H205.07V1.51338H194.69V47.0571C194.69 49.6742 194.403 52.0678 193.86 54.2381C193.285 56.4084 192.135 58.6425 190.379 60.9404C188.686 63.2064 186.355 64.9937 183.321 66.398C180.319 67.7704 176.327 68.4725 171.376 68.4725C163.871 68.4725 158.123 66.6214 154.13 62.9192C150.138 59.217 148.158 53.5679 148.158 45.94V1.5453H137.715V0.906982H137.747Z" fill="#FF0092"/>
<path d="M130.146 0.33252C112.229 0.33252 97.73 15.5882 97.73 34.4185C97.73 53.2487 112.261 68.5044 130.146 68.5044C148.031 68.5044 162.562 53.2487 162.562 34.4185C162.562 15.5882 148.031 0.33252 130.146 0.33252ZM130.146 67.898C116.381 67.898 106.96 57.5893 106.96 34.3866C106.96 12.0456 117.339 0.875086 130.146 0.875086C142.953 0.875086 153.332 12.0137 153.332 34.3866C153.332 58.0361 144.709 67.898 130.146 67.898Z" fill="#FF0092"/>
<path d="M84.1884 33.11C91.7894 31.1312 97.0271 24.8438 97.0271 17.3436C97.0271 8.3434 89.2664 1.03471 79.334 0.938965H47.7803V1.54536H56.3713V66.6215H47.7803V67.2279H79.9727C80.4199 67.2598 80.867 67.2917 81.3141 67.2917C92.6198 67.2917 100.604 59.5362 100.604 49.9615C100.604 41.2804 93.4502 34.993 84.1884 33.11ZM76.6194 1.54536C86.2324 3.49222 87.5418 9.81153 87.5418 17.3436C87.5418 24.7162 86.2324 31.1631 77.1623 33.1419H65.6969V1.54536H76.6194V1.54536ZM79.2382 66.6534H65.6969V33.7802H79.3659C79.6853 33.7802 80.0047 33.7802 80.2921 33.7483C89.3303 36.1739 90.6078 42.5251 90.6078 50.0253C90.5758 57.7489 89.1387 64.5469 79.2382 66.6534Z" fill="#FF0092"/>
<path d="M56.084 66.6534L31.748 1.13046L31.1731 0.938965L7.18847 66.6215H0.833008V67.2279H14.3743V66.6215H7.85914L15.8114 44.7911H38.6464L46.7584 66.6215H39.3809V67.2279L63.653 67.2598V66.6534H56.084ZM16.035 44.2166L27.1491 13.801L38.4548 44.2166H16.035Z" fill="#FF0092"/>
</svg>
