<svg width="368" height="75" viewBox="0 0 368 75" fill="none" xmlns="http://www.w3.org/2000/svg">
<path d="M343.207 2.40332H333.221H308.613V21.0467H309.193V19.513C309.431 10.4469 316.827 3.11906 325.961 3.08498H333.187V72.8528H323.985V73.5003H352.342V72.8528H343.139V3.0509H350.365C359.499 3.11906 366.895 10.4128 367.134 19.4789V21.0126H367.713V2.40332H343.207Z" fill="#FF0092"/>
<path d="M313.01 51.7213C312.465 51.7554 312.465 51.994 312.465 51.994C308.716 65.2182 299.343 71.7962 287.857 72.2734C273.44 72.8869 263.113 62.6279 262.09 38.6335C261.102 15.5252 271.497 3.52805 284.892 2.94864C296.139 2.47148 303.876 6.90226 308.988 23.5688L309.568 23.5347L309.091 10.8218L308.648 0.767334L307.966 0.801417L308.034 2.06249C308.136 3.97113 306.705 5.60711 304.796 5.67528C304.762 5.67528 304.694 5.67528 304.66 5.67528C303.808 5.67528 302.206 5.6412 301.252 5.4367C296.275 2.94864 290.652 1.65349 284.858 1.89207C266.078 2.67598 251.559 19.3425 252.411 39.0766C253.263 58.8106 269.145 74.182 287.925 73.364C301.354 72.7846 310.761 63.9571 313.59 51.9599C313.555 51.9599 313.555 51.7213 313.01 51.7213Z" fill="#FF0092"/>
<path d="M262.738 72.7165L236.766 2.77825L236.153 2.53967L210.557 72.7165H203.774V73.364H218.225V72.7165H211.272L219.759 49.4037H244.128L252.785 72.7165H244.912V73.364L270.815 73.3981V72.7505L262.738 72.7165ZM219.998 48.7562L231.859 16.2751L243.924 48.7562H219.998Z" fill="#FF0092"/>
<path d="M198.355 2.40332H188.369H163.761V21.0467H164.34V19.513C164.579 10.4469 171.975 3.11906 181.109 3.08498H188.335V72.8528H179.132V73.5003H207.489V72.8528H198.287V3.0509H205.512C214.647 3.11906 222.043 10.4128 222.281 19.4789V21.0126H222.861V2.40332H198.355Z" fill="#FF0092"/>
<path d="M154.661 2.57376V3.22133H163.897V58.0949L124.668 2.53967H113.42L115.056 4.8914V72.8528H105.82V73.5004H124.974V72.8528H115.738V5.84572L163.897 74.0798H164.545V3.22133H173.815V2.57376H154.661Z" fill="#FF0092"/>
<path d="M82.9843 1.92615C63.8638 1.92615 48.3901 18.2178 48.3901 38.3267C48.3901 58.4357 63.8979 74.7273 82.9843 74.7273C102.071 74.7273 117.579 58.4357 117.579 38.3267C117.579 18.2178 102.071 1.92615 82.9843 1.92615ZM82.9843 74.0798C68.2946 74.0798 58.2401 63.071 58.2401 38.2927C58.2401 14.4346 69.3171 2.50556 82.9843 2.50556C96.6516 2.50556 107.729 14.4005 107.729 38.2927C107.729 63.5481 98.5262 74.0798 82.9843 74.0798Z" fill="#FF0092"/>
<path d="M61.512 51.8235C60.9667 51.8576 60.9667 52.0962 60.9667 52.0962C57.2176 65.3204 47.8448 71.8984 36.3588 72.3756C21.9417 72.9891 11.6146 62.7301 10.5921 38.7357C9.60369 15.6274 19.999 3.63025 33.4277 3.05084C44.675 2.57368 52.4119 7.00446 57.4902 23.671L58.0696 23.6369L57.5925 10.924L57.1494 0.835449L56.4677 0.869532L56.5359 2.1306C56.6382 4.03925 55.2067 5.67523 53.298 5.74339C53.264 5.74339 53.1958 5.74339 53.1617 5.74339C52.3096 5.74339 50.7077 5.70931 49.7534 5.50481C44.7773 3.05084 39.1536 1.75569 33.3595 1.99427C14.6139 2.77818 0.0604662 19.4447 0.91254 39.1788C1.76461 58.9128 17.6473 74.2842 36.427 73.4662C49.8557 72.8868 59.2626 64.0593 62.0914 52.0621C62.0574 52.0621 62.0573 51.8235 61.512 51.8235Z" fill="#FF0092"/>
</svg>
