<svg width="369" height="75" viewBox="0 0 369 75" fill="none" xmlns="http://www.w3.org/2000/svg">
<path d="M322.174 51.6048H323.176C323.832 55.1623 324.73 58.1671 325.766 60.6194C326.837 63.0716 328.011 65.0748 329.289 66.6636C330.567 68.2524 331.603 69.5303 332.95 70.5319C334.263 71.499 336.093 72.2934 337.509 72.7079C338.925 73.0878 340.307 73.3296 341.619 73.3987C342.932 73.4677 344.175 73.5023 345.315 73.5023C348.527 73.5023 351.187 72.9842 353.259 71.9135C355.331 70.8428 357.058 69.0468 358.267 67.4235C359.476 65.8002 360.339 64.0732 360.823 62.1736C361.306 60.3085 361.548 58.547 361.548 56.9928C361.548 54.6787 361.168 52.71 360.374 51.0522C359.579 49.3943 358.578 48.0128 357.369 46.8384C356.16 45.6987 354.813 44.7316 353.397 44.0063C351.981 43.281 350.599 42.7283 349.321 42.3139L338.58 39.6544C333.641 37.9966 330.153 35.0262 327.631 32.3322C325.11 29.6382 323.832 26.0116 323.832 21.4525C323.832 18.4822 324.315 15.7191 325.283 13.1978C326.25 10.6419 327.631 8.46601 329.393 6.60092C331.154 4.77038 333.261 3.28522 335.748 2.24906C338.2 1.17836 340.929 0.660278 343.83 0.660278C345.971 0.660278 347.733 0.86751 349.183 1.24744C350.599 1.62736 351.843 2.07636 352.879 2.59444C353.915 3.07798 354.848 3.52699 355.677 3.94145C356.505 4.32137 357.334 4.52861 358.198 4.52861C358.992 4.52861 359.51 4.42499 359.787 4.18322C360.063 3.94145 360.443 3.38883 360.926 2.45629H362.204V20.3128H361.099C360.719 17.9296 360.098 15.65 359.234 13.4396C358.336 11.2291 357.196 8.8114 355.815 7.15354C354.399 5.46115 352.706 4.11414 350.738 3.07798C348.769 2.04182 346.455 1.55828 343.83 1.55828C342.379 1.55828 340.756 1.76551 338.994 2.21452C337.233 2.62898 335.575 3.38883 334.055 4.42499C332.536 5.49569 331.258 7.32624 330.256 9.05317C329.254 10.7801 328.736 12.956 328.736 15.581C328.736 17.6878 329.116 19.4838 329.911 20.969C330.705 22.4542 331.707 23.6976 332.985 24.7337C334.228 25.7699 335.644 26.5988 337.198 27.3241C338.753 28.0149 340.307 28.6366 341.896 29.1547L352.948 32.9194C354.088 33.2993 355.573 33.8519 357.334 34.5081C359.096 35.1644 360.823 36.166 362.515 37.4785C364.208 38.7909 365.624 40.5524 366.798 42.7283C367.972 44.9043 368.594 47.6674 368.594 51.0522C368.594 54.1606 368.076 57.0964 367.005 59.9286C365.935 62.7262 364.415 65.213 362.377 67.3544C360.374 69.4958 357.922 71.2227 355.055 72.5007C352.188 73.7786 348.976 74.4348 345.384 74.4348C344.106 74.4348 342.966 74.4348 341.999 74.4003C341.032 74.3657 340.1 74.2967 339.271 74.1585C338.407 74.0203 337.578 73.8822 336.715 73.7095C335.851 73.5368 334.919 73.295 333.883 72.9842C332.674 72.6043 331.361 72.1207 329.945 71.6026C328.529 71.0846 327.32 70.8083 326.284 70.8083C325.386 70.8083 324.73 71.0155 324.419 71.3954C324.074 71.7753 323.797 72.328 323.556 72.9842H322.174V51.6048V51.6048Z" fill="#0455BF"/>
<path d="M331.603 72.5698L305.285 1.66194L304.663 1.42017L278.724 72.5352H271.851V73.1915H286.496V72.5352H279.45L288.05 48.9108H312.745L321.518 72.5352H313.539V73.1915L339.789 73.226V72.5698H331.603ZM288.292 48.2891L300.311 15.3738L312.538 48.2891H288.292Z" fill="#0455BF"/>
<path d="M278.172 72.5697V1.31653H268.086V1.73099H268.052L246.776 57.6145L223.566 1.31653H212.859L213.792 3.63062V72.6734H204.57V73.3296H223.67V72.6734H214.448V5.28847L241.284 72.1207L241.768 72.2934C241.941 72.3625 242.113 72.2589 242.182 72.0862L268.086 4.04508V72.5697H261.179V73.226H285.045V72.5697H278.172Z" fill="#0455BF"/>
<path d="M179.495 0.625732C160.119 0.625732 144.438 17.1352 144.438 37.513C144.438 57.8908 160.153 74.4003 179.495 74.4003C198.837 74.4003 214.552 57.8563 214.552 37.513C214.552 17.1352 198.871 0.625732 179.495 0.625732ZM179.495 73.744C164.609 73.744 154.42 62.5881 154.42 37.4785C154.42 13.3014 165.645 1.21289 179.495 1.21289C193.345 1.21289 204.57 13.2669 204.57 37.4785C204.57 63.0716 195.245 73.744 179.495 73.744Z" fill="#0455BF"/>
<path d="M171.586 54.2988V55.853C171.344 65.0403 163.849 72.3971 154.627 72.4661H136.08V1.97276H145.371V1.31653H116.704V1.97276H125.995V72.4661H116.704V73.1224H172.173V54.2988H171.586Z" fill="#0455BF"/>
<path d="M125.96 19.4838C125.96 9.81303 117.636 1.97276 106.964 1.86914H73.0814V2.52537H82.2687V72.4661H73.0469V73.1224H101.472V72.4661H92.2849V37.1331H106.964C117.809 37.0295 125.96 29.1547 125.96 19.4838ZM104.581 36.4769H92.2849V2.52537H104.028C114.355 4.59769 115.737 11.4018 115.737 19.4838C115.737 27.4277 114.321 34.37 104.581 36.4769Z" fill="#0455BF"/>
<path d="M82.1997 2.21458V1.55835H53.7744V2.21458H62.9962V72.7079H53.7744V73.3642H82.1997V72.7079H72.9779V2.21458H82.1997Z" fill="#0455BF"/>
<path d="M63.0307 37.513C63.0307 17.6878 53.8088 1.66187 31.8768 1.66187C31.6696 1.66187 31.4623 1.66187 31.2551 1.66187H0.412109V2.3181H9.703V72.7078H0.412109V73.3641H31.8768H32.084C54.2233 73.2605 63.0307 57.2345 63.0307 37.513ZM25.3145 72.7078H19.7537V2.3181H24.1747C47.1774 6.01373 50.2168 20.52 50.2168 37.513C50.2168 54.1951 47.0738 68.9777 25.3145 72.7078Z" fill="#0455BF"/>
</svg>
