<svg width="45" height="27" viewBox="0 0 45 27" fill="none" xmlns="http://www.w3.org/2000/svg">
<path d="M41.7408 26.4995L31.0448 10.1569L39.3534 0.879295H42.1589V0.640442H35.4149V0.879295H39.0432L24.9618 16.6185V0.879295H28.59V0.640442H17.395V0.879295H21.0233V26.5246H17.395V26.7635H28.59V26.5246H24.9618V16.9579L28.2259 13.3122L36.8581 26.4995H33.9852V26.7635H44.6946V26.4995H41.7408Z" fill="#0455BF"/>
<path d="M21.4324 20.4779C21.3379 23.8218 18.4111 26.4995 14.8098 26.5246H7.56674V11.9797H11.2355C13.2452 11.9923 14.8772 13.4882 14.9312 15.3614V15.6756H15.066V8.14547H14.9312V8.45975C14.8772 10.3203 13.2452 11.8288 11.2355 11.8414H7.56674V0.640442H0V0.879295H3.62826V26.5372H0V26.776H21.6617V19.9247H21.4324V20.4779ZM7.56674 0.640442V0.879295H14.8098C18.4111 0.904438 21.3379 3.58211 21.4324 6.92606V7.49177H21.6617V0.640442H7.56674Z" fill="#0455BF"/>
</svg>
