<svg width="823" height="69" viewBox="0 0 823 69" fill="none" xmlns="http://www.w3.org/2000/svg">
<path d="M787.005 0.259155C767.269 0.259155 751.297 15.4651 751.297 34.234C751.297 53.0028 767.304 68.2088 787.005 68.2088C806.741 68.2088 822.713 53.0028 822.713 34.234C822.713 15.4651 806.741 0.259155 787.005 0.259155ZM787.005 67.6043C771.842 67.6043 761.464 57.3292 761.464 34.2021C761.464 11.934 772.898 0.799953 787.005 0.799953C801.112 0.799953 812.546 11.9022 812.546 34.2021C812.546 57.7745 803.047 67.6043 787.005 67.6043Z" fill="#0455BF"/>
<path d="M758.965 66.3318L731.102 25.0404L752.738 1.5634H760.021V0.958984H742.501V1.5634H751.929L715.271 41.3279V1.5634H724.699V0.958984H695.57V1.5634H705.034V66.3637H695.57V66.9681H724.699V66.3637H715.271V42.2186L723.75 32.9933L746.265 66.3318H738.772V66.9681H766.67V66.3318H758.965Z" fill="#0455BF"/>
<path d="M683.616 0.958984V1.5634H693.15V52.621L652.763 0.958984H641.189L642.912 3.12217V66.3637H633.378V66.9681H653.079V66.3637H643.581V4.0129L693.15 67.5089H693.819V1.5634H703.352V0.958984H683.616Z" fill="#0455BF"/>
<path d="M642.87 51.0624C642.624 59.5243 634.989 66.3002 625.596 66.3638H606.704V29.5577H616.273C621.515 29.5895 625.772 33.3751 625.913 38.1151V38.9103H626.265V19.8552H625.913V20.6505C625.772 25.3586 621.515 29.176 616.273 29.2078H606.704V0.863647H586.968V1.46807H596.432V66.3956H586.968V67H643.468V49.6627H642.87V51.0624ZM606.704 0.863647V1.46807H625.596C634.989 1.53169 642.624 8.30757 642.87 16.7695V18.201H643.468V0.863647H606.704Z" fill="#0455BF"/>
<path d="M572.06 0.863599V1.46802H581.558V52.4939L541.206 0.831787H529.632L531.321 3.02679V66.2365H521.822V66.8409H541.523V66.2365H532.024V3.8857L581.558 67.3499H582.227V1.46802H591.761V0.863599H572.06Z" fill="#0455BF"/>
<path d="M488.175 47.3085H489.195C489.863 50.5851 490.778 53.3527 491.834 55.6113C492.924 57.8699 494.12 59.715 495.422 61.1783C496.724 62.6417 497.779 63.8187 499.151 64.7412C500.488 65.632 502.353 66.3636 503.795 66.7454C505.237 67.0953 506.645 67.318 507.981 67.3816C509.318 67.4452 510.585 67.477 511.746 67.477C515.018 67.477 517.726 66.9999 519.837 66.0137C521.948 65.0275 523.707 63.3733 524.938 61.8782C526.17 60.383 527.049 58.7925 527.542 57.0428C528.034 55.325 528.281 53.7026 528.281 52.2711C528.281 50.1397 527.894 48.3265 527.084 46.7995C526.275 45.2725 525.255 44.0001 524.024 42.9185C522.792 41.8687 521.42 40.978 519.978 40.3099C518.536 39.6419 517.128 39.1329 515.827 38.7512L504.886 36.3017C499.855 34.7747 496.301 32.0389 493.733 29.5576C491.165 27.0763 489.863 23.7361 489.863 19.5369C489.863 16.8011 490.356 14.2562 491.341 11.934C492.326 9.57991 493.733 7.57578 495.527 5.85795C497.322 4.17193 499.468 2.80403 502.001 1.84969C504.499 0.863527 507.278 0.386353 510.233 0.386353C512.414 0.386353 514.208 0.577222 515.686 0.92715C517.128 1.27708 518.395 1.69063 519.45 2.1678C520.506 2.61317 521.456 3.02672 522.3 3.40846C523.144 3.75838 523.989 3.94925 524.868 3.94925C525.677 3.94925 526.205 3.85382 526.486 3.63114C526.768 3.40846 527.155 2.89947 527.647 2.04056H528.949V18.5508H527.823C527.436 16.3558 526.803 14.2562 525.923 12.2203C525.009 10.1843 523.848 7.95752 522.441 6.43056C520.998 4.87179 519.274 3.63114 517.269 2.67679C515.264 1.72244 512.907 1.27708 510.233 1.27708C508.755 1.27708 507.102 1.46795 505.308 1.8815C503.513 2.26324 501.825 2.96309 500.277 3.91744C498.729 4.9036 497.427 6.58962 496.407 8.1802C495.387 9.77078 494.859 11.7749 494.859 14.1926C494.859 16.1331 495.246 17.7873 496.055 19.1552C496.864 20.5231 497.885 21.6683 499.186 22.6227C500.453 23.577 501.895 24.3405 503.478 25.0085C505.061 25.6448 506.645 26.2174 508.263 26.6946L519.521 30.162C520.682 30.5119 522.194 31.0209 523.989 31.6254C525.783 32.2298 527.542 33.1523 529.266 34.3612C530.989 35.57 532.432 37.1924 533.628 39.1965C534.824 41.2006 535.457 43.7456 535.457 46.8631C535.457 49.7262 534.93 52.4301 533.839 55.0387C532.748 57.6154 531.201 59.9059 529.125 61.8782C527.084 63.8505 524.587 65.4411 521.667 66.6181C518.747 67.7952 515.475 68.3996 511.816 68.3996C510.514 68.3996 509.353 68.3996 508.368 68.3678C507.383 68.336 506.433 68.2723 505.589 68.1451C504.71 68.0178 503.865 67.8906 502.986 67.7315C502.106 67.5725 501.156 67.3498 500.101 67.0635C498.87 66.7136 497.533 66.2682 496.09 65.791C494.648 65.3139 493.417 65.0594 492.361 65.0594C491.447 65.0594 490.778 65.2502 490.462 65.6002C490.11 65.9501 489.828 66.4591 489.582 67.0635H488.175V47.3085Z" fill="#0455BF"/>
<path d="M494.064 66.3637L467.256 1.05447L466.623 0.831787L440.203 66.3319H433.202V66.9363H448.118V66.3319H440.941L449.701 44.5728H474.855L483.791 66.3319H475.665V66.9363L502.402 66.9681V66.3637H494.064ZM449.948 44.0002L462.19 13.6837L474.644 44.0002H449.948Z" fill="#0455BF"/>
<path d="M463.316 66.5545C459.974 66.2682 457.371 63.3415 457.125 59.6832C456.703 53.4481 458.075 46.6404 453.818 41.2325C449.596 35.8563 449.244 35.8881 444.636 34.3612C443.017 33.8204 439.957 33.4068 437.67 33.1205C447.169 31.7526 453.888 24.9767 453.818 16.8966C453.747 7.9257 445.128 0.736279 434.187 0.704468L399.429 0.958961V1.56338L408.892 1.49976L409.49 66.3636L400.027 66.4273V67.0317L429.156 66.809V66.2046L419.728 66.2682L419.411 33.5022L434.468 33.375C435.383 33.375 436.298 33.3114 437.142 33.1841C439.429 33.7567 441.505 34.9974 443.299 37.2878C447.309 42.4095 445.726 52.1438 446.641 57.6473C447.626 63.5006 451.918 67.3816 458.039 67.827C462.542 68.1451 467.046 67.0317 469.719 63.6278V63.4052C468.277 65.5047 465.779 66.7772 463.316 66.5545ZM419.13 1.40432L431.161 1.30889C441.751 3.15396 443.264 9.45266 443.334 16.9602C443.404 24.3087 441.997 30.7664 432.076 32.8024L419.446 32.8978L419.13 1.40432Z" fill="#0455BF"/>
<path d="M397.67 66.3001L369.771 24.945L391.443 1.46807H398.76V0.863647H381.17V1.46807H390.633L353.905 41.2962V1.46807H363.369V0.863647H334.169V1.46807H343.632V66.3637H334.169V66.9682H363.369V66.3637H353.905V42.1551L362.419 32.9297L384.934 66.3001H377.441V66.9682H405.374V66.3001H397.67Z" fill="#0455BF"/>
<path d="M303.843 66.3638L277.035 1.08633L276.402 0.863647L249.981 66.3638H242.98V66.9682H257.897V66.3638H250.72L259.48 44.6046H284.634L293.57 66.3638H285.443V66.9682L312.18 67V66.3956L303.843 66.3638ZM259.726 44.0002L271.969 13.6837L284.423 44.0002H259.726Z" fill="#0455BF"/>
<path d="M228.873 0.736328V1.37256H238.442V52.5893L197.914 0.736328H186.305L188.029 2.93133V66.3637H178.495V66.9681H198.231V66.3637H188.697V3.79024L238.442 67.4771H239.111V1.37256H248.645V0.736328H228.873Z" fill="#0455BF"/>
<path d="M175.223 51.0624C174.977 59.5243 167.343 66.3002 157.949 66.3638H139.058V29.5577H148.627C153.869 29.5895 158.125 33.3751 158.266 38.1151V38.9103H158.618V19.8552H158.266V20.6505C158.125 25.3586 153.869 29.176 148.627 29.2078H139.058V0.863647H119.321V1.46807H128.785V66.3956H119.321V67H175.821V49.6627H175.223V51.0624ZM139.093 0.863647V1.46807H157.985C167.378 1.53169 175.012 8.30757 175.258 16.7695V18.201H175.856V0.863647H139.093Z" fill="#0455BF"/>
<path d="M115.944 49.6309V51.0624C115.697 59.5243 108.063 66.3002 98.6699 66.3638H79.778V1.46807H89.2416V0.863647H60.0417V1.46807H69.5053V66.3956H60.0417V67H116.542V49.6627H115.944V49.6309Z" fill="#0455BF"/>
<path d="M56.7348 51.0624C56.4886 59.5243 48.8544 66.3002 39.4612 66.3638H20.5693V29.5577H30.1384C35.3803 29.5895 39.6371 33.3751 39.7778 38.1151V38.9103H40.1296V19.8552H39.7778V20.6505C39.6371 25.3586 35.3803 29.176 30.1384 29.2078H20.5693V0.863647H0.833008V1.46807H10.2966V66.3956H0.833008V67H57.3329V49.6627H56.7348V51.0624ZM20.5693 0.863647V1.46807H39.4612C48.8544 1.53169 56.4886 8.30757 56.7348 16.7695V18.201H57.3329V0.863647H20.5693Z" fill="#0455BF"/>
</svg>
