<svg width="79" height="80" viewBox="0 0 79 80" fill="none" xmlns="http://www.w3.org/2000/svg">
<path d="M13.6407 55.4462L78.2306 42.7483L77.6434 39.7111L13.0536 52.4027L13.6407 55.4462Z" fill="#111211"/>
<path d="M73.902 80L37.7627 43.9271L19.2371 78.2101L15.8268 76.3703L36.8008 37.5594L76.6191 77.2434L73.902 80Z" fill="#111211"/>
<path d="M44.9519 39.5801L41.2418 38.47L42.7221 34.0419L46.4322 35.1583L44.9519 39.5801Z" fill="#111211"/>
<path d="M47.2941 48.8852L44.4959 46.2097L47.1068 43.4843L33.4905 34.1355L41.4042 27.4747L44.1399 30.2126L39.6803 33.4245L53.2028 42.7171L47.2941 48.8852Z" fill="#111211"/>
<path d="M36.9568 74.3369C29.6925 74.3382 22.5909 72.1883 16.5504 68.1592C10.5098 64.1302 5.80148 58.4029 3.02097 51.7018C0.240455 45.0007 -0.487377 37.6267 0.929522 30.5125C2.34642 23.3983 5.8444 16.8635 10.9811 11.7345C16.1177 6.60549 22.6623 3.11273 29.7871 1.69794C36.912 0.283154 44.2969 1.0099 51.0081 3.78627C57.7192 6.56263 63.455 11.2639 67.4901 17.2955C71.5252 23.3271 73.6783 30.418 73.677 37.6715C73.6655 47.3922 69.793 56.7115 62.9092 63.5851C56.0253 70.4587 46.6921 74.3254 36.9568 74.3369ZM36.9568 4.98508C30.4821 4.98385 24.1525 6.89982 18.7684 10.4907C13.3843 14.0816 9.18756 19.1861 6.70894 25.1586C4.23033 31.1312 3.58117 37.7035 4.84356 44.0445C6.10596 50.3854 9.22319 56.2102 13.8011 60.7821C18.3789 65.354 24.2118 68.4677 30.562 69.7294C36.9121 70.9911 43.4944 70.3442 49.4764 67.8704C55.4583 65.3967 60.5713 61.2072 64.1685 55.8318C67.7658 50.4564 69.6858 44.1365 69.6858 37.6715C69.6759 29.0066 66.2247 20.6994 60.0892 14.5719C53.9536 8.44428 45.6346 4.99664 36.9568 4.98508Z" fill="#111211"/>
</svg>
